# Blender 3.6.4
# www.blender.org
mtllib m11107309.mtl
o Cube
v 1.883337 2.254647 -1.031443
v 1.883337 -0.475657 -1.031443
v 1.883337 2.254647 1.479940
v 1.883337 -0.475657 1.479940
v -0.116663 2.254647 -1.031443
v -0.116663 -0.475657 -1.031443
v -0.116663 2.254647 1.479940
v -0.116663 -0.475657 1.479940
vn -0.0000 1.0000 -0.0000
vn -0.0000 -0.0000 1.0000
vn -1.0000 -0.0000 -0.0000
vn -0.0000 -1.0000 -0.0000
vn 1.0000 -0.0000 -0.0000
vn -0.0000 -0.0000 -1.0000
vt 0.484784 0.672847
vt 0.246676 0.777824
vt 0.045380 0.725571
vt 0.263290 0.540567
vt 0.247755 0.070001
vt 0.091257 0.342447
vt 0.518652 0.740978
vt 0.579359 0.321375
vt 0.732478 0.096553
vt 0.742482 0.558355
vt 0.742055 0.568617
vt 0.977318 0.736779
vt 0.769347 0.817099
vt 0.518224 0.742902
vt 0.411526 0.270176
vt 0.483168 0.668807
vt 0.261135 0.534910
vt 0.900791 0.346643
s 0
usemtl Material
f 1/1/1 5/2/1 7/3/1 3/4/1
f 4/5/2 3/4/2 7/3/2 8/6/2
f 8/7/3 7/8/3 5/9/3 6/10/3
f 6/11/4 2/12/4 4/13/4 8/14/4
f 2/15/5 1/16/5 3/17/5 4/5/5
f 6/10/6 5/9/6 1/18/6 2/12/6
